<svg height="481pt" viewBox="-91 0 481 481.16997" width="481pt" xmlns="http://www.w3.org/2000/svg"><path d="m274.933594 153.167969h-250.847656c-4.664063 0-9.09375 2.03125-12.136719 5.570312-3.039063 3.535157-4.386719 8.21875-3.6875 12.832031l41.160156 274.398438c2.375 15.644531 15.824219 27.207031 31.648437 27.199219h136.878907c15.84375.003906 29.300781-11.589844 31.648437-27.253907l41.160156-274.402343c.683594-4.601563-.671874-9.269531-3.710937-12.792969s-7.460937-5.546875-12.113281-5.550781zm-214.222656 48 33.597656 224zm144 224 33.597656-224zm0 0" fill="#f285b9"/><path d="m244.855469 78.144531-61.816407-16.558593-30.914062-8.289063-61.816406-16.558594c-34.136719-9.160156-69.238282 11.089844-78.398438 45.230469l278.199219 74.5625c9.148437-34.144531-11.113281-69.238281-45.253906-78.386719zm0 0" fill="#ea348b"/><path d="m198.6875 37.882812c2.828125-4.292968 3.425781-9.683593 1.601562-14.492187-1.828124-4.804687-5.851562-8.441406-10.820312-9.773437l-18.933594-5.078126c-4.96875-1.332031-10.273437-.195312-14.257812 3.058594-3.984375 3.25-6.164063 8.222656-5.855469 13.355469l1.703125 28.34375 30.914062 8.289063zm0 0" fill="#f285b9"/><path d="m59.527344 193.257812c-4.371094.652344-7.382813 4.726563-6.730469 9.09375l33.601563 224c.585937 3.917969 3.949218 6.816407 7.910156 6.816407.402344 0 .800781-.03125 1.195312-.085938 4.367188-.65625 7.378906-4.726562 6.726563-9.097656l-33.601563-224c-.3125-2.097656-1.449218-3.988281-3.15625-5.25-1.707031-1.261719-3.847656-1.792969-5.945312-1.476563zm0 0"/><path d="m239.496094 193.257812c-2.101563-.316406-4.242188.214844-5.949219 1.476563s-2.84375 3.152344-3.15625 5.25l-33.601563 224c-.652343 4.371094 2.359376 8.441406 6.730469 9.097656.394531.054688.792969.085938 1.191407.085938 3.960937 0 7.324218-2.898438 7.910156-6.816407l33.601562-224c.652344-4.367187-2.359375-8.441406-6.726562-9.09375zm0 0"/><path d="m149.511719 193.167969c-4.417969 0-8 3.582031-8 8v224c0 4.417969 3.582031 8 8 8s8-3.582031 8-8v-224c0-4.417969-3.582031-8-8-8zm0 0"/><path d="m297.839844 158.601562c10.238281-38.402343-12.535156-77.851562-50.914063-88.183593l-51.101562-13.6875 9.535156-14.402344c4.265625-6.4375 5.167969-14.539063 2.429687-21.761719-2.738281-7.21875-8.785156-12.683594-16.246093-14.675781l-18.9375-5.074219c-7.449219-1.996094-15.402344-.289062-21.378907 4.585938-5.976562 4.875-9.246093 12.324218-8.789062 20.023437l1.039062 17.28125-51.101562-13.699219c-38.402344-10.238281-77.847656 12.535157-88.175781 50.914063-1.140625 4.265625 1.390625 8.648437 5.65625 9.792969l206.960937 55.453125h-192.730468c-6.988282 0-13.625 3.046875-18.1875 8.339843-4.558594 5.292969-6.585938 12.3125-5.546876 19.222657l41.160157 274.398437c2.851562 19.621094 19.722656 34.144532 39.550781 34.039063h136.894531c19.835938.101562 36.710938-14.429688 39.554688-34.0625l41.160156-274.398438c.585937-4.222656.035156-8.523437-1.601563-12.457031.320313-.519531.578126-1.070312.769532-1.648438zm-138.074219-111.535156-1.359375-22.601562c-.148438-2.5625.941406-5.042969 2.933594-6.667969 1.992187-1.621094 4.640625-2.1875 7.121094-1.523437l18.9375 5.0625c2.488281.664062 4.503906 2.484374 5.417968 4.894531.910156 2.40625.609375 5.105469-.808594 7.25l-12.472656 18.890625zm-71.527344-2.601562 154.542969 41.410156c26.871094 7.230469 44.375 33.074219 41.121094 60.710938l-261.59375-70.105469c10.992187-25.550781 39.054687-39.175781 65.929687-32.015625zm153.441407 400.265625c-1.695313 11.777343-11.820313 20.503906-23.722657 20.4375h-136.894531c-11.902344.066406-22.027344-8.660157-23.71875-20.4375l-41.160156-274.402344c-.335938-2.296875.339844-4.625 1.859375-6.386719 1.515625-1.757812 3.722656-2.769531 6.042969-2.773437h250.847656c2.328125.003906 4.539062 1.019531 6.054687 2.78125 1.519531 1.765625 2.195313 4.101562 1.851563 6.402343zm0 0"/></svg>