<svg height="512pt" viewBox="-60 0 512 512" width="512pt" xmlns="http://www.w3.org/2000/svg"><path d="m336.332031 0h-281.164062c-30.421875 0-55.167969 24.746094-55.167969 55.167969v401.664062c0 30.421875 24.746094 55.167969 55.167969 55.167969h281.164062c30.421875 0 55.167969-24.746094 55.167969-55.167969v-401.664062c0-30.421875-24.746094-55.167969-55.167969-55.167969zm0 0" fill="#d55f05"/><path d="m336.332031 0h-140.582031v512h140.582031c30.421875 0 55.167969-24.746094 55.167969-55.167969v-401.664062c0-30.421875-24.746094-55.167969-55.167969-55.167969zm0 0" fill="#a24603"/><path d="m256 80.332031h-120.5c-30.417969 0-55.164062 24.75-55.164062 55.167969v80.332031c0 30.421875 24.746093 55.167969 55.164062 55.167969h120.5c30.417969 0 55.167969-24.746094 55.167969-55.167969v-80.332031c0-30.417969-24.75-55.167969-55.167969-55.167969zm0 0" fill="#a8ebfa"/><path d="m296.167969 335.265625h-64.269531c-8.28125 0-15-6.714844-15-15 0-8.28125 6.71875-15 15-15h64.269531c8.28125 0 15 6.71875 15 15 0 8.285156-6.71875 15-15 15zm0 0" fill="#00215a"/><path d="m296.167969 399.53125c-3.949219 0-7.808594-1.601562-10.609375-4.390625-2.789063-2.800781-4.390625-6.660156-4.390625-10.609375 0-3.941406 1.601562-7.808594 4.390625-10.601562 2.800781-2.800782 6.660156-4.398438 10.609375-4.398438 3.941406 0 7.808593 1.601562 10.601562 4.398438 2.800781 2.792968 4.398438 6.648437 4.398438 10.601562 0 3.949219-1.601563 7.820312-4.398438 10.609375-2.792969 2.792969-6.660156 4.390625-10.601562 4.390625zm0 0" fill="#00215a"/><path d="m256 80.332031h-60.25v190.667969h60.25c30.417969 0 55.167969-24.746094 55.167969-55.167969v-80.332031c0-30.417969-24.75-55.167969-55.167969-55.167969zm0 0" fill="#76e2f8"/></svg>