<?xml version="1.0" encoding="iso-8859-1"?>
<!-- Generator: Adobe Illustrator 19.0.0, SVG Export Plug-In . SVG Version: 6.00 Build 0)  -->
<svg version="1.1" id="Capa_1" xmlns="http://www.w3.org/2000/svg" xmlns:xlink="http://www.w3.org/1999/xlink" x="0px" y="0px"
	 viewBox="0 0 512 512" style="enable-background:new 0 0 512 512;" xml:space="preserve">
<path style="fill:#F0B7A6;" d="M380.338,329.133l-33.142-132.922c-0.484-1.942-1.72-3.611-3.435-4.642
	c-1.716-1.031-3.771-1.337-5.711-0.854l-25.163,6.274c-3.505,0.873-7.213-0.224-9.677-2.862l-6.63-7.1
	c-20.324-21.763-50.899-30.807-79.788-23.604L113.65,189.141c-4.043,1.008-6.503,5.103-5.495,9.146l3.532,14.167
	c2.368,9.493,7.89,17.383,15.175,22.83L55.74,253.016c-15.029,3.748-24.207,19.023-20.46,34.052
	c1.141,4.575,3.35,8.608,6.295,11.899c-6.446,2.087-11.86,6.38-15.384,12.245c-3.864,6.431-4.992,13.982-3.177,21.262
	s6.356,13.418,12.788,17.283s13.984,4.992,21.263,3.178l1.054-0.263c-1.038,4.267-1.088,8.839,0.046,13.387
	c3.748,15.03,19.022,24.205,34.052,20.46l23.545-5.871c-1.054,4.349-1.048,8.917,0.065,13.383
	c1.815,7.28,6.357,13.418,12.788,17.282c4.427,2.66,9.383,4.024,14.418,4.024c2.28,0,4.576-0.28,6.846-0.846l154.609-38.548
	c7.83-1.953,14.921-6.064,20.505-11.889l14.823-15.463c1.301-1.356,2.952-2.313,4.775-2.768l30.253-7.543
	c1.942-0.484,3.611-1.72,4.642-3.435C380.515,333.129,380.822,331.076,380.338,329.133z"/>
<circle style="fill:#C8E7F7;" cx="307.83" cy="115.631" r="23.573"/>
<path style="fill:#8CBAFA;" d="M135.609,2.135c-2.928-2.846-7.588-2.846-10.516,0c-2.06,2.002-50.457,49.533-50.457,93.014
	c0,30.721,24.994,55.715,55.715,55.715s55.715-24.993,55.715-55.715C186.065,51.667,137.669,4.137,135.609,2.135z"/>
<path style="fill:#5692D8;" d="M135.609,2.135C134.145,0.712,132.248,0,130.351,0c0.82,0,1.64,0.712,2.273,2.134
	c0.891,2.002,21.812,49.533,21.812,93.014c0,30.721-10.805,55.715-24.085,55.715c30.721,0,55.715-24.993,55.715-55.715
	C186.065,51.667,137.669,4.137,135.609,2.135z"/>
<path style="fill:#C8E7F7;" d="M347.539,289.257c0-39.998-32.425-72.422-72.422-72.422c-8.208,0-16.088,1.385-23.444,3.901
	c-5.154-16.075-20.217-27.714-38.004-27.714c-22.041,0-39.909,17.868-39.909,39.909c0,0.747,0.024,1.487,0.065,2.224
	c-1.92-0.097-3.852-0.146-5.795-0.146c-62.316,0-112.834,50.518-112.834,112.833c0,62.317,50.517,112.834,112.834,112.834
	c39.208,0,73.74-20.001,93.962-50.354c1.243,0.116,2.5,0.183,3.774,0.183c22.041,0,39.909-17.868,39.909-39.909
	c0-5.106-0.969-9.982-2.717-14.47C329.135,345.214,347.539,319.387,347.539,289.257z"/>
<path style="fill:#FFD2C0;" d="M489.573,417.456l-37.306-139.227c-0.518-1.933-1.783-3.581-3.515-4.581
	c-1.733-1-3.791-1.272-5.725-0.754l-26.358,7.063c-3.809,1.022-7.877-0.107-10.617-2.94l-7.105-7.347
	c-21.681-22.42-53.863-31.333-83.987-23.26l-108.034,28.947c-1.933,0.518-3.581,1.783-4.581,3.515c-1,1.733-1.272,3.792-0.754,5.725
	l3.976,14.839c2.643,9.861,8.583,18.271,16.889,24.011l-75.279,20.171c-7.524,2.016-13.813,6.841-17.708,13.587
	c-3.895,6.746-4.929,14.604-2.913,22.129c1.299,4.845,3.762,9.178,7.153,12.689c-6.905,2.216-12.66,6.852-16.311,13.177
	c-3.895,6.746-4.929,14.604-2.913,22.129c2.016,7.524,6.842,13.813,13.587,17.707c6.745,3.895,14.603,4.928,22.129,2.913
	l1.741-0.467c-1.15,4.63-1.18,9.607,0.14,14.532c2.016,7.525,6.842,13.813,13.588,17.708c6.746,3.894,14.603,4.928,22.129,2.913
	l25.318-6.784c-1.151,4.63-1.18,9.606,0.139,14.532c3.487,13.013,15.3,21.617,28.176,21.617c2.491,0,5.022-0.322,7.541-0.997
	l161.941-43.392c8.13-2.178,15.45-6.595,21.168-12.772l15.311-16.54c1.393-1.505,3.177-2.582,5.159-3.112l31.688-8.491
	C488.263,425.617,490.651,421.48,489.573,417.456z"/>
<g>
	<path style="fill:#EAA28F;" d="M484.381,398.078c0.975,3.641-1.496,7.467-5.521,8.545l-31.688,8.491
		c-1.982,0.53-3.78,1.553-5.2,2.958l-15.607,15.434c-5.829,5.764-13.207,9.962-21.337,12.14l-161.942,43.392
		c-2.518,0.674-5.041,1.028-7.516,1.088c-9.291,0.223-17.9-3.717-23.135-10.392c-0.376,3.476-0.137,7.074,0.82,10.648
		c3.487,13.013,15.3,21.617,28.176,21.617c2.491,0,5.022-0.322,7.541-0.997l161.942-43.392c8.13-2.178,15.45-6.595,21.167-12.772
		l15.311-16.54c1.393-1.505,3.177-2.582,5.159-3.112l31.688-8.491c4.025-1.079,6.413-5.216,5.335-9.24l-37.306-139.227l0,0
		L484.381,398.078z"/>
	<path style="fill:#EAA28F;" d="M152.11,462.111c2.032,7.481,6.842,13.732,13.559,17.611c6.744,3.893,14.599,4.928,22.124,2.914
		l149.86-40.155c3.22-0.863,5.131-4.172,4.268-7.392l0,0c-0.863-3.22-4.172-5.131-7.392-4.268L179.75,472.294
		C169.022,475.168,158.076,470.758,152.11,462.111z"/>
	<path style="fill:#EAA28F;" d="M114.511,427.425c2.032,7.481,6.842,13.733,13.559,17.611c6.745,3.893,14.599,4.928,22.124,2.914
		l173.354-46.45c3.22-0.863,5.131-4.172,4.268-7.392l0,0c-0.863-3.22-4.172-5.131-7.392-4.268l-178.273,47.768
		C131.423,440.483,120.477,436.072,114.511,427.425z"/>
	<path style="fill:#EAA28F;" d="M304.46,355.951L304.46,355.951c-0.696-2.596-3.364-4.137-5.96-3.441l-140.262,37.583
		c-12.779,3.424-25.845-2.333-32.225-13.22c0.147,0.823,0.323,1.645,0.542,2.462c1.299,4.845,3.762,9.178,7.153,12.689
		c-0.186,0.06-0.367,0.128-0.551,0.191c7.022,6.898,17.403,10.011,27.599,7.279l140.262-37.583
		C303.615,361.214,305.156,358.546,304.46,355.951z"/>
	<path style="fill:#EAA28F;" d="M222.456,323.447l86.024-23.05c2.42-0.648,3.856-3.136,3.208-5.556
		c-0.648-2.42-3.136-3.857-5.556-3.208L214.41,316.21C216.753,318.932,219.447,321.367,222.456,323.447z"/>
</g>
<g>
</g>
<g>
</g>
<g>
</g>
<g>
</g>
<g>
</g>
<g>
</g>
<g>
</g>
<g>
</g>
<g>
</g>
<g>
</g>
<g>
</g>
<g>
</g>
<g>
</g>
<g>
</g>
<g>
</g>
</svg>
