<svg height="512pt" viewBox="0 -75 512.0015 512" width="512pt" xmlns="http://www.w3.org/2000/svg"><path d="m451.40625 300.824219h-389.878906l9.09375 32.710937h370.761718zm0 0" fill="#efedee"/><g fill="#d4d4d4"><path d="m239.742188 174.5625v-37.707031c0-19.757813 10.890624-37.671875 28.421874-46.746094 9.238282-4.78125 14.730469-14.214844 14.335938-24.621094-.523438-13.75-11.703125-24.925781-25.449219-25.449219-7.273437-.269531-14.199219 2.347657-19.4375 7.390626-5.242187 5.046874-8.128906 11.832031-8.128906 19.105468 0 8.980469-7.28125 16.257813-16.257813 16.257813-8.980468 0-16.257812-7.277344-16.257812-16.257813 0-16.191406 6.425781-31.296875 18.09375-42.53125 11.664062-11.226562 27.003906-17.078125 43.222656-16.457031 30.632813 1.164063 55.542969 26.070313 56.707032 56.707031.863281 22.773438-11.648438 44.257813-31.878907 54.730469-6.695312 3.464844-10.855469 10.3125-10.855469 17.867187v37.707032h-32.515624zm0 0"/><path d="m408.707031 333.535156h32.675781l10.023438-32.710937h-75.441406c14.9375 8.691406 25.769531 19.507812 32.742187 32.710937zm0 0"/><path d="m136.039062 300.824219h-74.511718l9.09375 32.710937h32.675781c6.976563-13.203125 17.804687-24.019531 32.742187-32.710937zm0 0"/></g><path d="m472.019531 355.15625c-13.371093.003906-25.894531-8.304688-30.636719-21.621094-22.980468-64.578125-99.214843-87.382812-185.382812-87.382812-86.164062 0-162.398438 22.804687-185.378906 87.382812-6.023438 16.917969-24.617188 25.75-41.539063 19.730469-16.917969-6.023437-25.75-24.621094-19.730469-41.539063 15.675782-44.039062 48.785157-83.402343 93.230469-110.84375 44.570313-27.515624 97.621094-42.058593 153.417969-42.058593s108.851562 14.542969 153.421875 42.058593c44.445313 27.441407 77.554687 66.808594 93.226563 110.847657 6.023437 16.917969-2.8125 35.511719-19.730469 41.535156-3.601563 1.28125-7.28125 1.890625-10.898438 1.890625zm0 0" fill="#dc8b72"/><path d="m196.15625 210v-12.195312c0-4.144532-3.355469-7.5-7.5-7.5-4.140625 0-7.5 3.355468-7.5 7.5v12.195312c0 4.140625 3.359375 7.5 7.5 7.5 4.144531 0 7.5-3.359375 7.5-7.5zm0 0"/><path d="m330.917969 210v-12.195312c0-4.144532-3.355469-7.5-7.5-7.5-4.140625 0-7.5 3.355468-7.5 7.5v12.195312c0 4.140625 3.359375 7.5 7.5 7.5 4.144531 0 7.5-3.359375 7.5-7.5zm0 0"/><path d="m256.039062 224.007812c8.644532 0 16.765626-3.613281 22.277344-9.921874 2.726563-3.117188 2.40625-7.859376-.710937-10.582032-3.121094-2.726562-7.859375-2.410156-10.585938.710938-2.664062 3.042968-6.664062 4.792968-10.980469 4.792968-4.320312 0-8.320312-1.75-10.984374-4.792968-2.726563-3.121094-7.464844-3.4375-10.585938-.710938-3.117188 2.722656-3.4375 7.464844-.710938 10.582032 5.515626 6.308593 13.632813 9.921874 22.28125 9.921874zm0 0"/><path d="m75.546875 341.035156h260.984375c4.144531 0 7.5-3.359375 7.5-7.5 0-4.144531-3.355469-7.503906-7.5-7.503906h-254.609375c.019531-.035156.035156-.070312.050781-.105469 3.074219-6.234375 6.777344-12.148437 11.097656-17.601562h325.933594c4.34375 5.480469 8.089844 11.417969 11.148438 17.707031h-63.746094c-4.144531 0-7.503906 3.359375-7.503906 7.503906 0 4.140625 3.359375 7.5 7.503906 7.5h70.121094c6.804687 13.121094 20.472656 21.625 35.527344 21.625 27.121093-.003906 46.792968-27.894531 37.699218-53.445312-16.246094-45.640625-50.464844-86.378906-96.355468-114.714844-39.371094-24.304688-85.160157-38.742188-133.601563-42.300781v-15.34375c0-4.742188 2.605469-9.035157 6.800781-11.210938 22.796875-11.800781 36.898438-36.011719 35.925782-61.675781-1.3125-34.53125-29.386719-62.605469-63.917969-63.9179688-18.226563-.6992192-35.621094 5.9492188-48.710938 18.5507808-13.148437 12.660157-20.390625 29.683594-20.390625 47.933594 0 13.101563 10.65625 23.757813 23.757813 23.757813 13.101562 0 23.757812-10.65625 23.757812-23.757813 0-5.214844 2.070313-10.082031 5.832031-13.703125 3.558594-3.425781 8.253907-5.3125 13.21875-5.3125.246094 0 .492188.003907.730469.015625 9.851563.375 17.863281 8.382813 18.238281 18.234375.285157 7.472657-3.660156 14.246094-10.289062 17.679688-20.03125 10.367187-32.472656 30.832031-32.472656 53.402343v15.347657c-44.328125 3.28125-86.679688 15.714843-123.675782 36.464843-3.613281 2.027344-4.898437 6.601563-2.871093 10.214844 2.027343 3.609375 6.597656 4.898438 10.210937 2.871094 37.097656-20.804688 79.933594-32.800781 124.71875-35.035156 10.40625-.523438 20.839844-.515625 31.246094.015625 48.558594 2.484375 94.464844 16.371093 133.609375 40.535156 43 26.546875 75 64.539063 90.101563 106.980469 5.695312 16.007812-6.601563 33.402344-23.566407 33.410156-13.679687.003906-20.832031-10.300781-25.523437-21.726562-12.226563-29.855469-36.148438-52.457032-71.195313-67.214844-31.609375-13.316406-71.746093-20.066406-119.296875-20.066406-47.550781 0-87.6875 6.75-119.296875 20.066406-35.046875 14.757812-58.96875 37.359375-71.195312 67.21875-5.820313 14.203125-16.902344 26.316406-33.910157 20.261718-12.996093-4.621093-19.804687-18.957031-15.179687-31.953124 13.246094-37.210938 38.988281-70.5625 74.445313-96.453126 3.34375-2.441406 4.078124-7.136718 1.632812-10.480468-2.441406-3.347656-7.132812-4.078125-10.480469-1.636719-37.902343 27.675781-65.472656 63.480469-79.730469 103.539063-7.398437 20.789062 3.492188 43.71875 24.28125 51.121093 19.054688 6.777344 39.898438-1.8125 48.945313-19.296875zm189.246094-204.179687v14.585937c-5.828125-.160156-11.683594-.160156-17.511719 0v-14.585937c0-16.941407 9.335938-32.300781 24.367188-40.085938 11.84375-6.128906 18.890624-18.226562 18.382812-31.566406-.671875-17.644531-15.015625-31.988281-32.667969-32.660156-.433593-.015625-.863281-.023438-1.292969-.023438-8.867187 0-17.253906 3.375-23.625 9.507813-6.722656 6.472656-10.425781 15.179687-10.425781 24.507812 0 4.828125-3.929687 8.757813-8.757812 8.757813s-8.757813-3.929688-8.757813-8.757813c0-14.136718 5.609375-27.320312 15.796875-37.125 10.140625-9.765625 23.574219-14.917968 37.734375-14.367187 26.738282 1.015625 48.480469 22.753906 49.496094 49.496093.753906 19.882813-10.171875 38.640626-27.832031 47.785157-9.195313 4.761719-14.90625 14.160156-14.90625 24.53125zm-122.226563 135.683593c29.753906-12.53125 67.929688-18.886718 113.472656-18.886718 45.539063 0 83.71875 6.355468 113.472657 18.886718 13.5 5.6875 25.128906 12.628907 34.84375 20.785157h-296.636719c9.71875-8.15625 21.34375-15.097657 34.847656-20.785157zm0 0"/></svg>