<?xml version="1.0" encoding="iso-8859-1"?>
<!-- Generator: Adobe Illustrator 19.0.0, SVG Export Plug-In . SVG Version: 6.00 Build 0)  -->
<svg version="1.1" id="Capa_1" xmlns="http://www.w3.org/2000/svg" xmlns:xlink="http://www.w3.org/1999/xlink" x="0px" y="0px"
	 viewBox="0 0 512 512" style="enable-background:new 0 0 512 512;" xml:space="preserve">
<path style="fill:#303C42;" d="M460.375,297.52c5.855-13.423,8.958-27.336,8.958-41.52c0-52.684-38.49-96.281-88.77-104.857
	c15.096-13.673,24.77-33.223,24.77-55.143c0-51.708-52.792-96-96-96c-5.896,0-10.667,4.771-10.667,10.667
	c0,29.417-28.708,53.333-64,53.333h-21.333c-44.448,0-80.632,38.548-84.561,87.413C79.776,161.033,42.667,204.228,42.667,256
	c0,14.184,3.103,28.096,8.958,41.52C20.5,318.642,0,354.307,0,394.667C0,459.354,52.646,512,117.333,512h277.333
	C459.354,512,512,459.354,512,394.667C512,354.307,491.5,318.642,460.375,297.52z"/>
<path style="fill:#BF6B29;" d="M394.667,490.667H117.333c-52.938,0-96-43.063-96-96c0-35.883,20.018-66.855,49.254-83.328
	c0.033-0.017,0.069-0.009,0.1-0.026c0.038-0.021,0.057-0.06,0.095-0.081c13.85-7.762,29.576-12.565,46.551-12.565
	c5.896,0,10.667-4.771,10.667-10.667c0-5.896-4.771-10.667-10.667-10.667c-16.719,0-32.6,3.574-47.009,9.906
	C66.141,277.066,64,266.602,64,256c0-47.063,38.271-85.333,85.333-85.333c5.896,0,10.667-4.771,10.667-10.667
	c0-5.573-4.313-10-9.758-10.483c4.417-36.178,30.878-64.184,63.091-64.184h21.333c42.414,0,77.408-27.285,83.961-62.792
	C347.445,28.31,384,58.893,384,96c0,29.417-23.917,53.333-53.333,53.333h-21.333c-5.896,0-10.667,4.771-10.667,10.667
	c0,5.896,4.771,10.667,10.667,10.667h53.333C409.729,170.667,448,208.938,448,256c0,10.602-2.141,21.066-6.324,31.24
	c-14.409-6.332-30.29-9.906-47.009-9.906c-5.896,0-10.667,4.771-10.667,10.667c0,5.896,4.771,10.667,10.667,10.667
	c16.975,0,32.701,4.803,46.551,12.565c0.038,0.021,0.057,0.06,0.095,0.081c0.031,0.017,0.068,0.009,0.1,0.026
	c29.236,16.473,49.254,47.445,49.254,83.328C490.667,447.604,447.604,490.667,394.667,490.667z"/>
<path style="opacity:0.2;fill:#FFFFFF;enable-background:new    ;" d="M213.333,105.458h21.333
	c42.414,0,77.408-27.285,83.961-62.792c26.352,5.275,58.833,31.378,64.258,64.165c0.725-3.5,1.115-7.12,1.115-10.832
	c0-37.107-36.555-67.69-65.372-73.458c-6.553,35.507-41.547,62.792-83.961,62.792h-21.333c-32.214,0-58.674,28.005-63.091,64.184
	c1.723,0.152,3.249,0.809,4.643,1.661C164.576,124.438,186.91,105.458,213.333,105.458z"/>
<g>
	<path style="fill:#303C42;" d="M138.667,256c3.417,0,6.792-1.646,8.854-4.708c2.354-3.521,13.188-16.625,23.146-16.625
		c9.667,0,20.229,12.333,23.167,16.646c3.313,4.875,9.958,6.146,14.792,2.833c4.875-3.292,6.167-9.875,2.896-14.771
		c-1.792-2.667-18.167-26.042-40.854-26.042s-39.063,23.375-40.854,26.042c-3.292,4.896-1.979,11.521,2.896,14.813
		C134.542,255.417,136.604,256,138.667,256z"/>
	<path style="fill:#303C42;" d="M341.333,213.333c-22.688,0-39.063,23.375-40.854,26.042c-3.292,4.896-1.979,11.521,2.896,14.813
		c1.833,1.229,3.896,1.813,5.958,1.813c3.417,0,6.792-1.646,8.854-4.708c2.354-3.521,13.188-16.625,23.146-16.625
		c9.667,0,20.229,12.333,23.167,16.646c3.313,4.875,9.979,6.146,14.792,2.833c4.875-3.292,6.167-9.875,2.896-14.771
		C380.396,236.708,364.021,213.333,341.333,213.333z"/>
</g>
<path style="opacity:0.1;fill:#010101;enable-background:new    ;" d="M446.997,314.971c9.647,14.836,15.396,32.395,15.396,51.422
	c0,52.938-43.063,96-96,96H89.06c-19.24,0-37.092-5.814-52.13-15.596c17.135,26.339,46.706,43.87,80.404,43.87h277.333
	c52.938,0,96-43.063,96-96C490.667,361.167,473.104,332.109,446.997,314.971z"/>
<path style="fill:#303C42;" d="M373.333,341.5l-234.667-0.167c-3.208,0-6.229,1.438-8.271,3.917c-2.021,2.5-2.833,5.75-2.188,8.896
	c13.938,67.813,66.5,115.188,127.813,115.188c61.25,0,113.792-47.292,127.75-115c0.667-3.146-0.146-6.417-2.167-8.896
	C379.583,342.938,376.542,341.5,373.333,341.5z"/>
<path style="fill:#B72025;" d="M256.021,448c-47.208,0-88.333-34.479-103.667-85.333l207.292,0.167
	C344.271,413.583,303.167,448,256.021,448z"/>
<path style="opacity:0.1;fill:#010101;enable-background:new    ;" d="M189.802,417.535c-8.737-13.902,2.106-32.012,18.525-31.998
	l141.848,0.114c3.69-7.201,7.013-14.708,9.47-22.818l-207.292-0.167c8.272,27.436,24.203,49.839,44.395,64.9
	C194.309,424.355,191.987,421.011,189.802,417.535z"/>
<linearGradient id="SVGID_1_" gradientUnits="userSpaceOnUse" x1="-43.7371" y1="637.6624" x2="-22.2862" y2="627.6604" gradientTransform="matrix(21.3333 0 0 -21.3333 996.3334 13791.667)">
	<stop  offset="0" style="stop-color:#FFFFFF;stop-opacity:0.2"/>
	<stop  offset="1" style="stop-color:#FFFFFF;stop-opacity:0"/>
</linearGradient>
<path style="fill:url(#SVGID_1_);" d="M460.375,297.52c5.855-13.423,8.958-27.336,8.958-41.52c0-52.684-38.49-96.281-88.77-104.857
	c15.096-13.673,24.77-33.223,24.77-55.143c0-51.708-52.792-96-96-96c-5.896,0-10.667,4.771-10.667,10.667
	c0,29.417-28.708,53.333-64,53.333h-21.333c-44.448,0-80.632,38.548-84.561,87.413C79.776,161.033,42.667,204.228,42.667,256
	c0,14.184,3.103,28.096,8.958,41.52C20.5,318.642,0,354.307,0,394.667C0,459.354,52.646,512,117.333,512h277.333
	C459.354,512,512,459.354,512,394.667C512,354.307,491.5,318.642,460.375,297.52z"/>
<g>
</g>
<g>
</g>
<g>
</g>
<g>
</g>
<g>
</g>
<g>
</g>
<g>
</g>
<g>
</g>
<g>
</g>
<g>
</g>
<g>
</g>
<g>
</g>
<g>
</g>
<g>
</g>
<g>
</g>
</svg>
