<?xml version="1.0" encoding="iso-8859-1"?>
<!-- Generator: Adobe Illustrator 18.0.0, SVG Export Plug-In . SVG Version: 6.00 Build 0)  -->
<!DOCTYPE svg PUBLIC "-//W3C//DTD SVG 1.1//EN" "http://www.w3.org/Graphics/SVG/1.1/DTD/svg11.dtd">
<svg xmlns="http://www.w3.org/2000/svg" xmlns:xlink="http://www.w3.org/1999/xlink" version="1.1" id="Capa_1" x="0px" y="0px" viewBox="0 0 297 297" style="enable-background:new 0 0 297 297;" xml:space="preserve" width="512px" height="512px">
<path d="M179.02,65.494h-11.196c9.754-6.356,16.224-17.37,16.224-29.874C184.048,15.979,168.102,0,148.5,0  s-35.548,15.979-35.548,35.62c0,12.504,6.47,23.518,16.224,29.874h-11.196c-24.776,0-44.934,20.184-44.934,44.989v69.374  c0,5.482,4.446,9.928,9.929,9.928h19.411v97.287c0,5.483,4.444,9.928,9.927,9.928h72.375c5.482,0,9.927-4.444,9.927-9.928v-97.287  h19.411c5.482,0,9.929-4.445,9.929-9.928v-69.374C223.954,85.678,203.797,65.494,179.02,65.494z" fill="#006DF0"/>
<g>
</g>
<g>
</g>
<g>
</g>
<g>
</g>
<g>
</g>
<g>
</g>
<g>
</g>
<g>
</g>
<g>
</g>
<g>
</g>
<g>
</g>
<g>
</g>
<g>
</g>
<g>
</g>
<g>
</g>
</svg>
