<?xml version="1.0" encoding="iso-8859-1"?>
<!-- Generator: Adobe Illustrator 19.0.0, SVG Export Plug-In . SVG Version: 6.00 Build 0)  -->
<svg version="1.1" id="Capa_1" xmlns="http://www.w3.org/2000/svg" xmlns:xlink="http://www.w3.org/1999/xlink" x="0px" y="0px"
	 viewBox="0 0 512 512" style="enable-background:new 0 0 512 512;" xml:space="preserve">
<path style="fill:#303C42;" d="M460.375,297.52c5.855-13.423,8.958-27.336,8.958-41.52c0-52.684-38.49-96.281-88.77-104.857
	c15.096-13.673,24.77-33.223,24.77-55.143c0-51.708-52.792-96-96-96c-5.896,0-10.667,4.771-10.667,10.667
	c0,29.417-28.708,53.333-64,53.333h-21.333c-44.448,0-80.632,38.548-84.561,87.413C79.776,161.033,42.667,204.228,42.667,256
	c0,14.184,3.103,28.096,8.958,41.52C20.5,318.642,0,354.307,0,394.667C0,459.354,52.646,512,117.333,512h277.333
	C459.354,512,512,459.354,512,394.667C512,354.307,491.5,318.642,460.375,297.52z"/>
<path style="fill:#BF6B29;" d="M394.667,490.667H117.333c-52.938,0-96-43.063-96-96c0-35.883,20.018-66.855,49.254-83.328
	c0.033-0.017,0.069-0.009,0.1-0.026c0.038-0.021,0.057-0.06,0.095-0.081c13.85-7.762,29.576-12.565,46.551-12.565
	c5.896,0,10.667-4.771,10.667-10.667c0-5.896-4.771-10.667-10.667-10.667c-16.719,0-32.6,3.574-47.009,9.906
	C66.141,277.066,64,266.602,64,256c0-47.063,38.271-85.333,85.333-85.333c5.896,0,10.667-4.771,10.667-10.667
	c0-5.573-4.313-10-9.758-10.483c4.417-36.178,30.878-64.184,63.091-64.184h21.333c42.414,0,77.408-27.285,83.961-62.792
	C347.445,28.31,384,58.893,384,96c0,29.417-23.917,53.333-53.333,53.333h-21.333c-5.896,0-10.667,4.771-10.667,10.667
	c0,5.896,4.771,10.667,10.667,10.667h53.333C409.729,170.667,448,208.938,448,256c0,10.602-2.141,21.066-6.324,31.24
	c-14.409-6.332-30.29-9.906-47.009-9.906c-5.896,0-10.667,4.771-10.667,10.667c0,5.896,4.771,10.667,10.667,10.667
	c16.975,0,32.701,4.803,46.551,12.565c0.038,0.021,0.057,0.06,0.095,0.081c0.031,0.017,0.068,0.009,0.1,0.026
	c29.236,16.473,49.254,47.445,49.254,83.328C490.667,447.604,447.604,490.667,394.667,490.667z"/>
<path style="opacity:0.2;fill:#FFFFFF;enable-background:new    ;" d="M213.333,105.458h21.333
	c42.414,0,77.408-27.285,83.961-62.792c26.352,5.275,58.833,31.378,64.258,64.165c0.725-3.5,1.115-7.12,1.115-10.832
	c0-37.107-36.555-67.69-65.372-73.458c-6.553,35.507-41.547,62.792-83.961,62.792h-21.333c-32.214,0-58.674,28.005-63.091,64.184
	c1.723,0.152,3.249,0.809,4.643,1.661C164.576,124.438,186.91,105.458,213.333,105.458z"/>
<g>
	<path style="fill:#303C42;" d="M170.667,256c11.771,0,21.333-9.563,21.333-21.333c0-5.896-4.771-10.667-10.667-10.667
		c-5.896,0-10.667,4.771-10.667,10.667c0-5.896-4.771-10.667-10.667-10.667c-5.896,0-10.667,4.771-10.667,10.667
		C149.333,246.438,158.896,256,170.667,256z"/>
	<path style="fill:#303C42;" d="M352,224c-5.896,0-10.667,4.771-10.667,10.667c0-5.896-4.771-10.667-10.667-10.667
		c-5.896,0-10.667,4.771-10.667,10.667c0,11.771,9.563,21.333,21.333,21.333s21.333-9.563,21.333-21.333
		C362.667,228.771,357.896,224,352,224z"/>
	<path style="fill:#303C42;" d="M255.979,341.333c-50.688,0-94.375,29.479-106.25,71.667c-1.583,5.688,1.708,11.563,7.375,13.167
		c5.75,1.542,11.563-1.708,13.167-7.375c9.146-32.521,45.188-56.125,85.708-56.125c40.563,0,76.625,23.646,85.75,56.208
		c1.313,4.708,5.604,7.792,10.271,7.792c0.938,0,1.917-0.125,2.875-0.396c5.667-1.583,8.979-7.479,7.396-13.146
		C350.438,370.854,306.729,341.333,255.979,341.333z"/>
</g>
<path style="opacity:0.1;fill:#010101;enable-background:new    ;" d="M446.997,313.763c9.647,14.836,15.396,32.395,15.396,51.422
	c0,52.938-43.063,96-96,96H89.06c-19.24,0-37.092-5.814-52.13-15.596c17.135,26.339,46.706,43.87,80.404,43.87h277.333
	c52.938,0,96-43.063,96-96C490.667,359.958,473.104,330.901,446.997,313.763z"/>
<linearGradient id="SVGID_1_" gradientUnits="userSpaceOnUse" x1="-43.7371" y1="637.6624" x2="-22.2862" y2="627.6604" gradientTransform="matrix(21.3333 0 0 -21.3333 996.3334 13791.667)">
	<stop  offset="0" style="stop-color:#FFFFFF;stop-opacity:0.2"/>
	<stop  offset="1" style="stop-color:#FFFFFF;stop-opacity:0"/>
</linearGradient>
<path style="fill:url(#SVGID_1_);" d="M460.375,297.52c5.855-13.423,8.958-27.336,8.958-41.52c0-52.684-38.49-96.281-88.77-104.857
	c15.096-13.673,24.77-33.223,24.77-55.143c0-51.708-52.792-96-96-96c-5.896,0-10.667,4.771-10.667,10.667
	c0,29.417-28.708,53.333-64,53.333h-21.333c-44.448,0-80.632,38.548-84.561,87.413C79.776,161.033,42.667,204.228,42.667,256
	c0,14.184,3.103,28.096,8.958,41.52C20.5,318.642,0,354.307,0,394.667C0,459.354,52.646,512,117.333,512h277.333
	C459.354,512,512,459.354,512,394.667C512,354.307,491.5,318.642,460.375,297.52z"/>
<g>
</g>
<g>
</g>
<g>
</g>
<g>
</g>
<g>
</g>
<g>
</g>
<g>
</g>
<g>
</g>
<g>
</g>
<g>
</g>
<g>
</g>
<g>
</g>
<g>
</g>
<g>
</g>
<g>
</g>
</svg>
