<?xml version="1.0" encoding="iso-8859-1"?>
<!-- Generator: Adobe Illustrator 19.0.0, SVG Export Plug-In . SVG Version: 6.00 Build 0)  -->
<svg version="1.1" id="Capa_1" xmlns="http://www.w3.org/2000/svg" xmlns:xlink="http://www.w3.org/1999/xlink" x="0px" y="0px"
	 viewBox="0 0 512.003 512.003" style="enable-background:new 0 0 512.003 512.003;" xml:space="preserve">
<rect x="96.641" y="30.589" transform="matrix(-0.7071 -0.7071 0.7071 -0.7071 145.6872 351.5733)" style="fill:#A5E9FF;" width="98.031" height="230.049"/>
<rect x="317.3" y="251.246" transform="matrix(-0.7071 -0.7071 0.7071 -0.7071 366.3474 884.2875)" style="fill:#87DAFF;" width="98.031" height="230.049"/>
<path style="fill:#F2F2F4;" d="M466.433,45.495c-68.932-68.932-168.526-51.701-220.226,0
	c-27.569,27.569-34.884,49.273-41.338,68.422c-6.182,18.346-11.523,34.19-34.12,56.787c-22.598,22.597-38.442,27.937-56.788,34.12
	c-19.149,6.453-40.853,13.768-68.422,41.338c-64.078,64.078-57.263,162.964,0,220.226c55.512,55.512,154.398,65.829,220.226,0
	c27.569-27.569,34.884-49.273,41.338-68.422c6.182-18.346,11.523-34.19,34.12-56.787c22.598-22.597,38.442-27.937,56.788-34.12
	c19.149-6.453,40.853-13.768,68.422-41.338C526.261,205.893,528.114,107.175,466.433,45.495z"/>
<path style="fill:#DFDFE1;" d="M45.564,466.411c55.516,55.492,154.384,65.797,220.202-0.023
	c27.569-27.569,34.884-49.273,41.338-68.422c6.182-18.346,11.523-34.19,34.12-56.787c22.598-22.597,38.442-27.937,56.788-34.12
	c19.149-6.453,40.853-13.768,68.422-41.338c59.82-59.82,61.68-158.521,0.023-220.202L45.564,466.411z"/>
<path style="fill:#87DAFF;" d="M278.097,77.342c-19.178,19.178-23.869,31.262-30.511,50.968
	c-6.634,19.687-14.891,44.187-44.947,74.241c-30.055,30.056-54.553,38.313-74.239,44.947c-19.709,6.643-31.793,11.335-50.97,30.512
	c-42.699,42.699-43.843,112.729,0,156.573c39.176,39.176,109.54,47.033,156.572,0c19.178-19.178,23.869-31.262,30.511-50.968
	c6.634-19.687,14.891-44.187,44.947-74.241c30.055-30.056,54.553-38.313,74.239-44.947c19.709-6.642,31.793-11.335,50.97-30.512
	c42.532-42.532,43.677-112.896,0-156.573C388.243,30.915,318.045,37.394,278.097,77.342z M413.451,212.697
	c-15.14,15.14-23.226,17.865-39.336,23.294c-21.459,7.232-50.847,17.137-85.873,52.164c-35.027,35.026-44.931,64.414-52.164,85.874
	c-5.429,16.109-8.154,24.193-23.295,39.335c-34.03,34.029-84.629,29.507-114.136,0c-28.673-28.673-34.53-79.607,0-114.137
	c15.14-15.14,23.226-17.865,39.336-23.294c21.459-7.232,50.847-17.137,85.873-52.164c35.027-35.026,44.931-64.414,52.164-85.874
	c5.429-16.109,8.154-24.193,23.294-39.335c37.363-37.363,88.13-26.006,114.136,0C444.125,129.234,446.148,180,413.451,212.697z"/>
<path style="fill:#00C3FF;" d="M434.614,77.288l-21.218,21.218c0.018,0.018,0.037,0.036,0.055,0.054
	c30.674,30.674,32.696,81.44,0,114.137c-15.14,15.14-23.226,17.865-39.336,23.294c-21.459,7.232-50.847,17.137-85.873,52.164
	c-35.027,35.026-44.931,64.414-52.164,85.874c-5.429,16.109-8.154,24.193-23.295,39.335c-34.03,34.029-84.629,29.507-114.136,0
	c-0.018-0.018-0.036-0.037-0.054-0.055l-21.218,21.218c0.018,0.018,0.036,0.037,0.054,0.055c39.176,39.176,109.54,47.033,156.572,0
	c19.178-19.178,23.869-31.262,30.511-50.968c6.634-19.687,14.891-44.187,44.947-74.241c30.055-30.056,54.553-38.313,74.239-44.947
	c19.709-6.642,31.793-11.335,50.97-30.512c42.532-42.532,43.677-112.896,0-156.573C434.651,77.323,434.632,77.306,434.614,77.288z"
	/>
<g>
</g>
<g>
</g>
<g>
</g>
<g>
</g>
<g>
</g>
<g>
</g>
<g>
</g>
<g>
</g>
<g>
</g>
<g>
</g>
<g>
</g>
<g>
</g>
<g>
</g>
<g>
</g>
<g>
</g>
</svg>
