<?xml version="1.0" encoding="iso-8859-1"?>
<!-- Generator: Adobe Illustrator 19.0.0, SVG Export Plug-In . SVG Version: 6.00 Build 0)  -->
<svg version="1.1" id="Capa_1" xmlns="http://www.w3.org/2000/svg" xmlns:xlink="http://www.w3.org/1999/xlink" x="0px" y="0px"
	 viewBox="0 0 512 512" style="enable-background:new 0 0 512 512;" xml:space="preserve">
<g>
	<polygon style="fill:#FCB17E;" points="475.5,334.5 333.247,334.5 204.832,334.5 156.5,334.5 96.501,334.5 36.501,334.5 10,334.5 
		10,369.5 37.001,369.5 70.001,369.5 442,369.5 475,369.5 502,369.5 502,334.5 	"/>
	<g>
		<rect x="37" y="369.5" style="fill:#FF8E4B;" width="33" height="58"/>
		<rect x="442" y="369.5" style="fill:#FF8E4B;" width="33" height="58"/>
	</g>
	<polygon style="fill:#FF5D5D;" points="96.001,334.5 96.001,118.725 96.001,84.5 36.001,84.5 36.001,334.5 	"/>
	<polygon style="fill:#A0E557;" points="156.001,118.5 96.001,118.5 96.001,334.5 156.001,334.5 156.001,155.505 	"/>
	<polygon style="fill:#72D8FF;" points="209.644,141.249 156.001,155.512 204.333,334.5 257.976,320.237 	"/>
	<path style="fill:#EDF2FA;" d="M306.001,203.5v56h26.784h102.962c13.658,0,25.71-9.606,28.046-23.062
		c3.047-17.55-10.552-32.938-27.571-32.938H306.001z"/>
	<path style="fill:#87C4FF;" d="M436.296,259.5H334.409c-19.85,0-36.811,15.139-38.143,34.945
		c-1.464,21.768,15.943,40.055,37.414,40.055h141.321V297v-37.5H436.296z"/>
</g>
<path d="M502,324.5h-16.999v-65c0-5.522-4.478-10-10-10h-5.319c2.895-5.368,4.541-11.511,4.541-18.039
	c0-20.932-17.029-37.961-37.961-37.961H306.001c-5.522,0-10,4.478-10,10v56c0,2.297,0.783,4.407,2.085,6.096
	c-7.401,8.379-11.907,19.372-11.907,31.404c0,10.244,3.271,19.733,8.807,27.5h-27.973c1.009-2.138,1.237-4.571,0.616-6.87
	l-48.332-178.988c-1.436-5.315-6.896-8.477-12.224-7.057L166,142.506V118.5c0-5.522-4.478-10-10-10h-50v-24c0-5.522-4.478-10-10-10
	H36c-5.522,0-10,4.478-10,10v240H10c-5.522,0-10,4.478-10,10v35c0,5.522,4.478,10,10,10h17.001v48c0,5.522,4.478,10,10,10h33
	c5.522,0,10-4.478,10-10v-48h352v48c0,5.522,4.478,10,10,10h33c5.522,0,10-4.478,10-10v-48H502c5.522,0,10-4.478,10-10v-35
	C512,328.978,507.522,324.5,502,324.5z M316.001,213.5h120.261c9.903,0,17.961,8.058,17.961,18.039
	c0,9.903-8.058,17.961-17.961,17.961H333.68h-17.679L316.001,213.5L316.001,213.5z M306.18,297c0-15.163,12.337-27.5,27.5-27.5
	h102.582h28.739v17h-31c-5.522,0-10,4.478-10,10s4.478,10,10,10h31v18H333.68C318.517,324.5,306.18,312.163,306.18,297z
	 M202.586,153.473l43.118,159.68l-34.313,9.124l-43.118-159.68L202.586,153.473z M191.275,324.5h-25.274v-93.596L191.275,324.5z
	 M146.001,128.5v196h-40v-196H146.001z M46.001,94.5h40v24v206h-40V94.5z M60.001,417.5h-13v-38h13V417.5z M465.001,417.5h-13v-38
	h13V417.5z M492,359.5h-16.999h-33h-372h-33H20v-15h16.001h60h60h48.256c0.024,0,0.047,0.003,0.071,0.003
	c0.015,0,0.03-0.003,0.045-0.003H333.68h141.321H492V359.5z"/>
<circle cx="405.5" cy="296.5" r="10"/>
<g>
</g>
<g>
</g>
<g>
</g>
<g>
</g>
<g>
</g>
<g>
</g>
<g>
</g>
<g>
</g>
<g>
</g>
<g>
</g>
<g>
</g>
<g>
</g>
<g>
</g>
<g>
</g>
<g>
</g>
</svg>
