<?xml version="1.0" encoding="iso-8859-1"?>
<!-- Generator: Adobe Illustrator 19.0.0, SVG Export Plug-In . SVG Version: 6.00 Build 0)  -->
<svg version="1.1" id="Capa_1" xmlns="http://www.w3.org/2000/svg" xmlns:xlink="http://www.w3.org/1999/xlink" x="0px" y="0px"
	 viewBox="0 0 512 512" style="enable-background:new 0 0 512 512;" xml:space="preserve">
<path style="fill:#87DAFF;" d="M140.639,329.532l10.002,10.002c-21.613,21.613-26.543,39.267-30.893,54.843
	c-3.843,13.762-7.163,25.649-23.209,41.696s-27.934,19.367-41.696,23.209c-15.576,4.35-33.23,9.28-54.843,30.893l21.218,21.218
	c16.047-16.047,27.933-19.366,41.696-23.209c15.576-4.35,33.23-9.279,54.843-30.893c21.613-21.613,26.543-39.267,30.893-54.843
	c3.843-13.762,7.163-25.649,23.209-41.696l11.216,11.216l80.374-80.374l-42.436-42.436L140.639,329.532z"/>
<path style="fill:#00C3FF;" d="M120.339,392.268c-0.199,0.707,35.472-15.468,51.52-31.515l11.216,11.216l80.374-80.374
	l-21.218-21.218L120.339,392.268z"/>
<path style="fill:#DFDFE1;" d="M150.641,339.535c-21.613,21.613-26.543,39.267-30.893,54.843
	c-3.843,13.762-7.163,25.649-23.209,41.696s-27.934,19.367-41.696,23.209c-15.576,4.349-33.23,9.279-54.843,30.892l21.218,21.218
	c16.047-16.047,27.933-19.366,41.696-23.209c15.576-4.35,33.23-9.279,54.843-30.893c21.613-21.613,26.543-39.267,30.893-54.843
	c3.843-13.762,7.163-25.649,23.209-41.696L150.641,339.535z"/>
<path style="fill:#F2F2F4;" d="M494.422,18.185L494.422,18.185c-23.438-23.437-61.435-23.437-84.873,0L191.006,236.729
	l84.873,84.873l218.544-218.544C517.859,79.621,517.859,41.622,494.422,18.185z"/>
<path style="fill:#DFDFE1;" d="M494.422,18.185l-260.98,260.98l42.436,42.437l218.544-218.544
	C517.859,79.621,517.859,41.622,494.422,18.185L494.422,18.185z"/>
<g>
</g>
<g>
</g>
<g>
</g>
<g>
</g>
<g>
</g>
<g>
</g>
<g>
</g>
<g>
</g>
<g>
</g>
<g>
</g>
<g>
</g>
<g>
</g>
<g>
</g>
<g>
</g>
<g>
</g>
</svg>
