<?xml version="1.0" encoding="iso-8859-1"?>
<!-- Generator: Adobe Illustrator 19.0.0, SVG Export Plug-In . SVG Version: 6.00 Build 0)  -->
<svg version="1.1" id="Layer_1" xmlns="http://www.w3.org/2000/svg" xmlns:xlink="http://www.w3.org/1999/xlink" x="0px" y="0px"
	 viewBox="0 0 512 512" style="enable-background:new 0 0 512 512;" xml:space="preserve">
<path style="fill:#A4E276;" d="M442.182,387.879h-45.287L371.169,310.7c-3.168-9.503-12.061-15.912-22.078-15.912H232.727v-77.376
	h116.364c12.853,0,23.273-10.42,23.273-23.273c0-12.853-10.42-23.273-23.273-23.273H232.727v-35.233
	c27.088-9.607,46.545-35.475,46.545-65.815C279.273,31.32,247.952,0,209.455,0c-38.499,0-69.818,31.32-69.818,69.818
	c0,30.34,19.458,56.208,46.545,65.815v37.851c-79.87,14.621-139.636,84.497-139.636,167.849
	c0,91.505,72.391,166.412,162.909,170.482c2.572,0.116,5.157,0.185,7.758,0.185c61.791,0,116.975-33.417,146.947-83.931
	c4.223,3.983,9.88,6.355,15.962,6.355h62.061c12.853,0,23.273-10.42,23.273-23.273C465.455,398.299,455.035,387.879,442.182,387.879
	z M217.212,465.455c-2.608,0-5.19-0.109-7.758-0.267c-64.838-4.022-116.364-58.022-116.364-123.854
	c0-57.647,39.298-106.425,93.091-120.216v96.943c0,12.853,10.42,23.273,23.273,23.273h122.861l7.156,21.47
	C329.218,421.672,277.549,465.455,217.212,465.455z"/>
<path id="SVGCleanerId_0" style="fill:#A4E276;" d="M442.182,387.879h-45.287L371.169,310.7
	c-3.168-9.503-12.061-15.912-22.078-15.912H232.727v-77.376h116.364c12.853,0,23.273-10.42,23.273-23.273
	c0-12.853-10.42-23.273-23.273-23.273H232.727v-35.233c27.088-9.607,46.545-35.475,46.545-65.815C279.273,31.32,247.952,0,209.455,0
	v341.333h122.861l7.156,21.47c-10.254,58.869-61.922,102.651-122.259,102.651c-2.608,0-5.19-0.109-7.758-0.267v46.628
	c2.572,0.116,5.157,0.185,7.758,0.185c61.791,0,116.975-33.417,146.947-83.931c4.223,3.983,9.88,6.355,15.962,6.355h62.061
	c12.853,0,23.273-10.42,23.273-23.273C465.455,398.299,455.035,387.879,442.182,387.879z"/>
<path id="SVGCleanerId_1" style="fill:#64C37D;" d="M93.091,341.333c0-57.647,39.298-106.425,93.091-120.216v96.943
	c0,12.853,10.42,23.273,23.273,23.273V0c-38.499,0-69.818,31.32-69.818,69.818c0,30.34,19.458,56.208,46.545,65.815v37.851
	c-79.87,14.621-139.636,84.497-139.636,167.849c0,91.505,72.391,166.412,162.909,170.482v-46.628
	C144.617,461.166,93.091,407.166,93.091,341.333z"/>
<g>
	<path id="SVGCleanerId_0_1_" style="fill:#A4E276;" d="M442.182,387.879h-45.287L371.169,310.7
		c-3.168-9.503-12.061-15.912-22.078-15.912H232.727v-77.376h116.364c12.853,0,23.273-10.42,23.273-23.273
		c0-12.853-10.42-23.273-23.273-23.273H232.727v-35.233c27.088-9.607,46.545-35.475,46.545-65.815
		C279.273,31.32,247.952,0,209.455,0v341.333h122.861l7.156,21.47c-10.254,58.869-61.922,102.651-122.259,102.651
		c-2.608,0-5.19-0.109-7.758-0.267v46.628c2.572,0.116,5.157,0.185,7.758,0.185c61.791,0,116.975-33.417,146.947-83.931
		c4.223,3.983,9.88,6.355,15.962,6.355h62.061c12.853,0,23.273-10.42,23.273-23.273
		C465.455,398.299,455.035,387.879,442.182,387.879z"/>
</g>
<g>
	<path id="SVGCleanerId_1_1_" style="fill:#64C37D;" d="M93.091,341.333c0-57.647,39.298-106.425,93.091-120.216v96.943
		c0,12.853,10.42,23.273,23.273,23.273V0c-38.499,0-69.818,31.32-69.818,69.818c0,30.34,19.458,56.208,46.545,65.815v37.851
		c-79.87,14.621-139.636,84.497-139.636,167.849c0,91.505,72.391,166.412,162.909,170.482v-46.628
		C144.617,461.166,93.091,407.166,93.091,341.333z"/>
</g>
<g>
</g>
<g>
</g>
<g>
</g>
<g>
</g>
<g>
</g>
<g>
</g>
<g>
</g>
<g>
</g>
<g>
</g>
<g>
</g>
<g>
</g>
<g>
</g>
<g>
</g>
<g>
</g>
<g>
</g>
</svg>
